# xmcd
#
# Track frame offsets: 
#        150
#        23430
#        36702
#        48070
#        62027
#        74430
#        89647
#        103865
#        142950
#        165260
#        178260
#        198750
#        212975
#        235690
#        266190
#        282017
#
# Disc length: 4142 seconds
#
# Revision: 3
# Processed by: cddbd v1.5.2PL0 Copyright (c) Steve Scherf et al.
# Submitted via: ExactAudioCopyFreeDBPlugin 1.0
#
DISCID=e7102c10
DTITLE=Various Artist - Blues Story #01
DYEAR=2000
DGENRE=Blues
TTITLE0=B.B. King - The Thrill Is Gone
TTITLE1=Muddy Waters - Mannish Boy
TTITLE2=John Lee Hooker - Boom Boom
TTITLE3=Etta James - I Just Want To Make Love To You
TTITLE4=Aretha Franklin - (You make Me Feel Like) A Natural Woman
TTITLE5=Ray Charles - Drown In My Own Tears
TTITLE6=Albert Collins - Ice Pick
TTITLE7=Albert King - Blues At Sunrise
TTITLE8=Canned Heat - On The Road Again
TTITLE9=J.J. Cale - Cocaine
TTITLE10=Lonnie Mack with Stevie Ray Vaughan - If You Have To Know
TTITLE11=Taj Mahal with Eric Clapton - Here In The Dark
TTITLE12=Johnny Winter - Murdering Blues
TTITLE13=Rory Gallagher - Bulfrog Blues
TTITLE14=Screamin' Jay Hawkins - I Put A Spell On You
TTITLE15=Santana - Europa (Live) bonus track
EXTD=
EXTT0=
EXTT1=
EXTT2=
EXTT3=
EXTT4=
EXTT5=
EXTT6=
EXTT7=
EXTT8=
EXTT9=
EXTT10=
EXTT11=
EXTT12=
EXTT13=
EXTT14=
EXTT15=
PLAYORDER=
